<svg xmlns="http://www.w3.org/2000/svg" viewBox="0 0 25.57 32"><defs><style>.cls-1{fill:#181818;}</style></defs><title>tc-cart</title><g id="Layer_2" data-name="Layer 2"><g id="Layer_1-2" data-name="Layer 1"><path class="cls-1" d="M25.57,27.73,23.73,7a.8.8,0,0,0-.8-.72H19.05a6.27,6.27,0,0,0-12.53,0H2.64a.8.8,0,0,0-.8.72L0,27.73v.08A4.5,4.5,0,0,0,4.74,32H20.83a4.5,4.5,0,0,0,4.74-4.19ZM12.78,1.59a4.68,4.68,0,0,1,4.68,4.67H8.11a4.68,4.68,0,0,1,4.67-4.67Zm8,28.81H4.74a2.92,2.92,0,0,1-3.15-2.57l1.78-20H6.52v2.79a.8.8,0,0,0,1.59,0V7.85h9.35v2.79a.8.8,0,0,0,1.59,0V7.85H22.2l1.78,20a2.92,2.92,0,0,1-3.15,2.56Z"/></g></g></svg>