<svg xmlns="http://www.w3.org/2000/svg" viewBox="0 0 35 35"><defs><style>.cls-1{fill:#8f8e9e;}</style></defs><title>tc-facebook-footer</title><g id="Layer_2" data-name="Layer 2"><g id="Layer_1-2" data-name="Layer 1"><path class="cls-1" d="M17.5,0A17.5,17.5,0,1,0,35,17.5,17.51,17.51,0,0,0,17.5,0Zm5.19,10.82H20.81a1.77,1.77,0,0,0-1.4.43,2,2,0,0,0-.36,1.3v2.27h3.52l-.47,3.56H19.05V27.5H15.37V18.38H12.31V14.82h3.06V12.2a4.67,4.67,0,0,1,1.25-3.47A4.56,4.56,0,0,1,20,7.5a21,21,0,0,1,2.74.14Z"/></g></g></svg>