<svg xmlns="http://www.w3.org/2000/svg" viewBox="0 0 56 56"><defs><style>.cls-1{fill:#fff;}</style></defs><title>tc-insta-big-whitte</title><g id="Layer_2" data-name="Layer 2"><g id="Layer_1-2" data-name="Layer 1"><path class="cls-1" d="M28,13.53A14.47,14.47,0,1,0,42.47,28,14.5,14.5,0,0,0,28,13.53Zm0,23.32A8.85,8.85,0,1,1,36.85,28,8.86,8.86,0,0,1,28,36.85Z"/><circle class="cls-1" cx="42.5" cy="13.61" r="3.47"/><path class="cls-1" d="M39.33,0H16.7A16.71,16.71,0,0,0,0,16.67V39.33A16.71,16.71,0,0,0,16.7,56H39.33A16.7,16.7,0,0,0,56,39.33V16.67A16.7,16.7,0,0,0,39.33,0Zm11,39.33a11,11,0,0,1-11,11H16.7a11,11,0,0,1-11-11V16.67a11,11,0,0,1,11-11H39.33a11,11,0,0,1,11,11Z"/></g></g></svg>