<svg xmlns="http://www.w3.org/2000/svg" viewBox="0 0 20 20"><defs><style>.cls-1{fill:#8f8e9e;}</style></defs><title>tc-insta-small</title><g id="Layer_2" data-name="Layer 2"><g id="Layer_1-2" data-name="Layer 1"><path class="cls-1" d="M10,4.83A5.17,5.17,0,1,0,15.17,10,5.18,5.18,0,0,0,10,4.83Zm0,8.33A3.16,3.16,0,1,1,13.16,10,3.17,3.17,0,0,1,10,13.16Z"/><circle class="cls-1" cx="15.18" cy="4.86" r="1.24"/><path class="cls-1" d="M14,0H6A6,6,0,0,0,0,6V14a6,6,0,0,0,6,6H14a6,6,0,0,0,6-6V6A6,6,0,0,0,14,0ZM18,14A3.94,3.94,0,0,1,14,18H6A3.94,3.94,0,0,1,2,14V6A4,4,0,0,1,6,2H14A4,4,0,0,1,18,6Z"/></g></g></svg>