<svg xmlns="http://www.w3.org/2000/svg" viewBox="0 0 35 35"><defs><style>.cls-1{fill:#8f8e9e;}</style></defs><title>tc-insta-footer</title><g id="Layer_2" data-name="Layer 2"><g id="Layer_1-2" data-name="Layer 1"><path class="cls-1" d="M21.38,9.83H13.62a3.79,3.79,0,0,0-3.79,3.79v7.77a3.78,3.78,0,0,0,3.79,3.78h7.76a3.79,3.79,0,0,0,3.79-3.78V13.62A3.79,3.79,0,0,0,21.38,9.83ZM17.5,22.47a5,5,0,1,1,5-5A5,5,0,0,1,17.5,22.47Zm5-8.71a1.19,1.19,0,1,1,1.19-1.19A1.19,1.19,0,0,1,22.47,13.76Zm-5,.71a3,3,0,1,0,3,3A3,3,0,0,0,17.5,14.47Z"/><path class="cls-1" d="M17.5,0A17.5,17.5,0,1,0,35,17.5,17.5,17.5,0,0,0,17.5,0Zm9.6,21.39a5.73,5.73,0,0,1-5.72,5.72H13.62a5.73,5.73,0,0,1-5.73-5.72V13.62A5.73,5.73,0,0,1,13.62,7.9h7.76a5.73,5.73,0,0,1,5.72,5.72Z"/></g></g></svg>