<svg xmlns="http://www.w3.org/2000/svg" viewBox="0 0 276.03 45"><defs><style>.cls-1{fill:#8f8e9e;}.cls-2{fill:#8b263c;}.cls-3{fill:#121728;}</style></defs><title>tc-logo</title><g id="Layer_2" data-name="Layer 2"><g id="Layer_1-2" data-name="Layer 1"><path class="cls-1" d="M155,45a22.5,22.5,0,0,1,0-45V5.52a17,17,0,1,0,0,34Z"/><path class="cls-2" d="M155,0V5.52a17,17,0,0,1,16.76,14.36H160.11V13.1h-5.23V31.9h5.23V25.11h11.68A17,17,0,0,1,155,39.48V45a22.5,22.5,0,0,0,0-45Z"/><path class="cls-3" d="M15,17.38H9.59V32.75H5.34V17.38H0V13.93H15Z"/><path class="cls-3" d="M29.82,33.07a8.75,8.75,0,0,1-6.59-2.63,9.46,9.46,0,0,1-2.54-6.85,10.14,10.14,0,0,1,2.58-7.22,9,9,0,0,1,6.85-2.76,8.54,8.54,0,0,1,6.52,2.64,9.73,9.73,0,0,1,2.49,7,10,10,0,0,1-2.58,7.15A8.85,8.85,0,0,1,29.82,33.07ZM30,17.26a4.29,4.29,0,0,0-3.55,1.67,7,7,0,0,0-1.31,4.43,6.85,6.85,0,0,0,1.31,4.42,4.53,4.53,0,0,0,6.92,0,6.75,6.75,0,0,0,1.28-4.39,7.33,7.33,0,0,0-1.24-4.55A4.05,4.05,0,0,0,30,17.26Z"/><path class="cls-3" d="M69.07,32.75H64.88V21.49c0-1.22.05-2.56.16-4h-.11A19.42,19.42,0,0,1,64.34,20l-4.41,12.8H56.47L52,20.08a24.66,24.66,0,0,1-.59-2.62h-.12c.12,1.85.17,3.48.17,4.88V32.75H47.62V13.93h6.21l3.85,11.15a16.24,16.24,0,0,1,.66,2.69h.08c.24-1,.49-1.94.75-2.71L63,13.93h6Z"/><path class="cls-3" d="M100.16,32.75H96V21.49c0-1.22.06-2.56.16-4H96A21.33,21.33,0,0,1,95.44,20L91,32.75H87.56L83.08,20.08a23.67,23.67,0,0,1-.6-2.62h-.11c.11,1.85.17,3.48.17,4.88V32.75H78.72V13.93h6.21l3.84,11.15a15.34,15.34,0,0,1,.67,2.69h.08a23.75,23.75,0,0,1,.75-2.71l3.84-11.13h6Z"/><path class="cls-3" d="M124,13.93l-6.13,12.12v6.7h-4.24V26.13l-6-12.2h4.84l3,7c.06.13.2.64.44,1.53h0a6.47,6.47,0,0,1,.41-1.48l3.08-7.07Z"/><path class="cls-3" d="M202.88,32.08a12.52,12.52,0,0,1-5.38,1,9.08,9.08,0,0,1-6.81-2.54,9.3,9.3,0,0,1-2.49-6.79A10,10,0,0,1,191,16.42a9.76,9.76,0,0,1,7.24-2.81,13.63,13.63,0,0,1,4.65.7v4.08a8.28,8.28,0,0,0-4.31-1.13,5.72,5.72,0,0,0-4.28,1.67,6.19,6.19,0,0,0-1.62,4.51,6.08,6.08,0,0,0,1.53,4.35,5.44,5.44,0,0,0,4.14,1.62,8.88,8.88,0,0,0,4.54-1.2Z"/><path class="cls-3" d="M219.16,33.07a8.74,8.74,0,0,1-6.59-2.63A9.43,9.43,0,0,1,210,23.59a10.1,10.1,0,0,1,2.59-7.22,8.93,8.93,0,0,1,6.85-2.76A8.52,8.52,0,0,1,226,16.25a9.73,9.73,0,0,1,2.49,7,10,10,0,0,1-2.58,7.15A8.85,8.85,0,0,1,219.16,33.07Zm.18-15.81a4.26,4.26,0,0,0-3.54,1.67,7,7,0,0,0-1.32,4.43,6.79,6.79,0,0,0,1.32,4.42,4.18,4.18,0,0,0,3.43,1.63,4.23,4.23,0,0,0,3.48-1.58A6.76,6.76,0,0,0,224,23.44a7.33,7.33,0,0,0-1.25-4.55A4.05,4.05,0,0,0,219.34,17.26Z"/><path class="cls-3" d="M250.45,32.08a12.52,12.52,0,0,1-5.38,1,9.08,9.08,0,0,1-6.81-2.54,9.29,9.29,0,0,1-2.48-6.79,10,10,0,0,1,2.78-7.32,9.78,9.78,0,0,1,7.24-2.81,13.63,13.63,0,0,1,4.65.7v4.08a8.28,8.28,0,0,0-4.31-1.13,5.74,5.74,0,0,0-4.28,1.67,6.19,6.19,0,0,0-1.62,4.51,6.08,6.08,0,0,0,1.53,4.35,5.44,5.44,0,0,0,4.14,1.62,8.88,8.88,0,0,0,4.54-1.2Z"/><path class="cls-3" d="M266.73,33.07a8.74,8.74,0,0,1-6.59-2.63,9.43,9.43,0,0,1-2.55-6.85,10.14,10.14,0,0,1,2.59-7.22A8.94,8.94,0,0,1,267,13.61a8.52,8.52,0,0,1,6.51,2.64,9.73,9.73,0,0,1,2.49,7,10,10,0,0,1-2.58,7.15A8.85,8.85,0,0,1,266.73,33.07Zm.18-15.81a4.26,4.26,0,0,0-3.54,1.67,7,7,0,0,0-1.31,4.43,6.79,6.79,0,0,0,1.31,4.42,4.52,4.52,0,0,0,6.91,0,6.76,6.76,0,0,0,1.29-4.39,7.33,7.33,0,0,0-1.25-4.55A4.05,4.05,0,0,0,266.91,17.26Z"/></g></g></svg>