<svg xmlns="http://www.w3.org/2000/svg" viewBox="0 0 40 36.69"><defs><style>.cls-1{fill:#8f8e9e;}</style></defs><title>tc-maoney-back-garatee</title><g id="Layer_2" data-name="Layer 2"><g id="Layer_1-2" data-name="Layer 1"><path class="cls-1" d="M34.63,5.37a18.35,18.35,0,0,0-26.11.17A1,1,0,0,0,9.94,6.92,16.37,16.37,0,1,1,5.29,18.35v-.21l1.63,1.63a1,1,0,0,0,.7.29,1,1,0,0,0,.69-1.69L5,15.05a1,1,0,0,0-1.4,0L.29,18.37a1,1,0,0,0,1.4,1.4l1.63-1.63v.21a18.34,18.34,0,1,0,31.31-13Z"/><path class="cls-1" d="M21.66,6.87a1,1,0,0,0-1,1v2.4H20a4.53,4.53,0,0,0,0,9h3.23a2.55,2.55,0,1,1,0,5.1h-5.8a1,1,0,0,0,0,2h3.2v2.42a1,1,0,1,0,2,0V26.39h.69a4.53,4.53,0,0,0-.06-9.06H20a2.55,2.55,0,0,1,0-5.1h5.7a1,1,0,1,0,0-2h-3.1V7.86a1,1,0,0,0-1-1Z"/></g></g></svg>