<svg xmlns="http://www.w3.org/2000/svg" viewBox="0 0 34.91 40"><defs><style>.cls-1{fill:#8f8e9e;}</style></defs><title>tc-privacy protection</title><g id="Layer_2" data-name="Layer 2"><g id="Layer_1-2" data-name="Layer 1"><path class="cls-1" d="M34.91,8.53a2.67,2.67,0,0,0-2.52-2.82c-.3,0-.61-.08-.91-.11-.89-.11-1.73-.2-2.54-.38A26.46,26.46,0,0,1,19.36.75,3.35,3.35,0,0,0,17.46,0a3.38,3.38,0,0,0-1.88.74c-4.52,3.1-8.59,4.68-12.8,5A2.69,2.69,0,0,0,0,8.68V12c0,3,0,6.2,0,9.31a17.13,17.13,0,0,0,.43,3.57A16.11,16.11,0,0,0,5,32.7a31,31,0,0,0,11.43,7.12,3.06,3.06,0,0,0,2.27-.08l.78-.33h0c1.14-.49,2.32-1,3.46-1.6a25.19,25.19,0,0,0,8.85-7.3,14.12,14.12,0,0,0,3-8c0-.54,0-1.1,0-1.74l0-5.14V8.53Zm-2,7v.06l0,5.15c0,.62,0,1.16,0,1.67a12.28,12.28,0,0,1-2.64,6.89A23.43,23.43,0,0,1,22,36c-1.07.57-2.21,1.06-3.32,1.53h0l-.79.34a1.1,1.1,0,0,1-.45.09.83.83,0,0,1-.32,0A29.26,29.26,0,0,1,6.39,31.3a14.24,14.24,0,0,1-4-6.87A13.88,13.88,0,0,1,2,21.29C2,18.19,2,15,2,12V8.68a1.2,1.2,0,0,1,.18-.78,1.18,1.18,0,0,1,.74-.21c4.58-.3,9-2,13.79-5.31A1.77,1.77,0,0,1,17.46,2a1.8,1.8,0,0,1,.76.39,28.45,28.45,0,0,0,10.3,4.78,26.77,26.77,0,0,0,2.73.41c.3,0,.6.06.89.11.59.07.78.28.78.84v7Z"/><path class="cls-1" d="M14,15.31a3.49,3.49,0,1,0,3.49-3.49A3.49,3.49,0,0,0,14,15.31Zm5,0a1.49,1.49,0,1,1-1.49-1.49A1.49,1.49,0,0,1,19,15.31Z"/><path class="cls-1" d="M17.47,19.51a5.19,5.19,0,0,0-4.62,2.64,11.76,11.76,0,0,0-1.42,5,1,1,0,0,0,2,.17c.35-3.87,1.72-5.84,4-5.84s3.69,2,4.05,5.84a1,1,0,0,0,1,.91h.09a1,1,0,0,0,.91-1.08,12.09,12.09,0,0,0-1.43-5,5.17,5.17,0,0,0-4.61-2.63Z"/></g></g></svg>