<svg xmlns="http://www.w3.org/2000/svg" viewBox="0 0 12.31 16"><defs><style>.cls-1{fill:#8f8e9e;}</style></defs><title>tc-share-pint</title><g id="Layer_2" data-name="Layer 2"><g id="Layer_1-2" data-name="Layer 1"><path class="cls-1" d="M0,5.74a5.37,5.37,0,0,1,.36-2,5,5,0,0,1,1-1.6A6.74,6.74,0,0,1,2.82,1,6.85,6.85,0,0,1,4.6.25,7.43,7.43,0,0,1,6.54,0,6.35,6.35,0,0,1,9.37.64,5.36,5.36,0,0,1,11.49,2.5a4.79,4.79,0,0,1,.82,2.76,9.11,9.11,0,0,1-.18,1.81,7.94,7.94,0,0,1-.58,1.7,6.69,6.69,0,0,1-1,1.44,4.32,4.32,0,0,1-1.4,1,4.47,4.47,0,0,1-1.81.37,3.06,3.06,0,0,1-1.3-.31,2,2,0,0,1-.93-.85L4.88,11.5c-.11.47-.19.77-.22.91s-.1.36-.2.68a3.61,3.61,0,0,1-.25.68c-.07.14-.17.34-.31.6a5.47,5.47,0,0,1-.44.75L2.87,16,2.73,16l-.09-.1c-.09-1-.14-1.61-.14-1.8a10.71,10.71,0,0,1,.21-2c.13-.73.35-1.66.64-2.76s.45-1.76.5-2a3.57,3.57,0,0,1-.31-1.62A2.57,2.57,0,0,1,4,4.27a1.49,1.49,0,0,1,1.27-.7A1.12,1.12,0,0,1,6.22,4a1.45,1.45,0,0,1,.33,1,5.87,5.87,0,0,1-.43,1.84,6.09,6.09,0,0,0-.42,1.8,1.32,1.32,0,0,0,.43,1,1.48,1.48,0,0,0,1,.4,2,2,0,0,0,1-.24,2.27,2.27,0,0,0,.76-.65,5.86,5.86,0,0,0,.54-.92,5.09,5.09,0,0,0,.36-1.06A9,9,0,0,0,10,6a6.35,6.35,0,0,0,.07-1A3.24,3.24,0,0,0,9,2.5a4,4,0,0,0-2.74-.93A4.44,4.44,0,0,0,3.07,2.81,4.21,4.21,0,0,0,1.78,6a2.81,2.81,0,0,0,.12.82,2.89,2.89,0,0,0,.26.62l.26.44a.78.78,0,0,1,.12.29,2.31,2.31,0,0,1-.15.71c-.09.28-.21.43-.35.43l-.16,0A2.09,2.09,0,0,1,1,8.71,2.78,2.78,0,0,1,.42,7.8a5.63,5.63,0,0,1-.31-1A5.21,5.21,0,0,1,0,5.74Z"/></g></g></svg>