<svg xmlns="http://www.w3.org/2000/svg" viewBox="0 0 40 29.85"><defs><style>.cls-1{fill:#8f8e9e;}</style></defs><title>tc-secure-payment</title><g id="Layer_2" data-name="Layer 2"><g id="Layer_1-2" data-name="Layer 1"><path class="cls-1" d="M21.73,23.62h-19A.78.78,0,0,1,2,22.83v-15H35.44v2a1,1,0,0,0,2,0V2.75A2.75,2.75,0,0,0,34.65,0H2.75A2.75,2.75,0,0,0,0,2.75V22.83a2.76,2.76,0,0,0,2.75,2.76h19a1,1,0,0,0,0-2ZM2.75,2h31.9a.79.79,0,0,1,.79.78V5.91H2V2.75A.79.79,0,0,1,2.75,2Z"/><path class="cls-1" d="M19.68,15.17a1,1,0,0,0-1-1H6.88a1,1,0,0,0,0,2H18.7a1,1,0,0,0,1-1Z"/><path class="cls-1" d="M6.88,17.71a1,1,0,0,0,0,2h4.73a1,1,0,0,0,0-2Z"/><path class="cls-1" d="M6.77,12.59H18.58a1,1,0,1,0,0-2H6.77a1,1,0,1,0,0,2Z"/><path class="cls-1" d="M39,19.36H37.58V17.07a5.16,5.16,0,1,0-10.32,0v2.29H25.82a1,1,0,0,0-1,1v8.53a1,1,0,0,0,1,1H39a1,1,0,0,0,1-1V20.34a1,1,0,0,0-1-1Zm-9.79-2.3a3.2,3.2,0,1,1,6.39,0v2.29H29.23ZM38,27.87H26.8V21.32H38v6.55Z"/></g></g></svg>