<svg xmlns="http://www.w3.org/2000/svg" viewBox="0 0 19.7 16"><defs><style>.cls-1{fill:#8f8e9e;}</style></defs><title>tc-share-tw</title><g id="Layer_2" data-name="Layer 2"><g id="Layer_1-2" data-name="Layer 1"><path class="cls-1" d="M19.7,1.9a8.54,8.54,0,0,1-2,2.09c0,.11,0,.29,0,.52a11.37,11.37,0,0,1-.48,3.25,11.61,11.61,0,0,1-1.44,3.1,12.36,12.36,0,0,1-2.31,2.63,10.18,10.18,0,0,1-3.22,1.83,11.94,11.94,0,0,1-4,.68A11.2,11.2,0,0,1,0,14.19a9.55,9.55,0,0,0,1,.05,7.92,7.92,0,0,0,5-1.73,3.88,3.88,0,0,1-2.35-.8,4,4,0,0,1-1.43-2A5.4,5.4,0,0,0,3,9.77,4.27,4.27,0,0,0,4,9.64a3.94,3.94,0,0,1-2.32-1.4A3.89,3.89,0,0,1,.8,5.67v0a4,4,0,0,0,1.83.52A4.15,4.15,0,0,1,1.31,4.7,4,4,0,0,1,.83,2.77a3.89,3.89,0,0,1,.55-2,11.38,11.38,0,0,0,3.68,3A11.24,11.24,0,0,0,9.7,5,4.18,4.18,0,0,1,9.6,4a3.89,3.89,0,0,1,1.18-2.86A3.89,3.89,0,0,1,13.64,0a3.9,3.9,0,0,1,2.95,1.27,7.88,7.88,0,0,0,2.56-1,3.91,3.91,0,0,1-1.77,2.22A8,8,0,0,0,19.7,1.9Z"/></g></g></svg>