<svg xmlns="http://www.w3.org/2000/svg" viewBox="0 0 27.22 32"><defs><style>.cls-1{fill:#181818;}</style></defs><title>tc-user</title><g id="Layer_2" data-name="Layer 2"><g id="Layer_1-2" data-name="Layer 1"><path class="cls-1" d="M13.49,17.24h.22a6.09,6.09,0,0,0,4.67-2c2.55-2.87,2.12-7.8,2.08-8.28-.17-3.53-1.84-5.22-3.22-6A7.36,7.36,0,0,0,13.68,0h-.11A7.39,7.39,0,0,0,10,.91c-1.39.79-3.09,2.48-3.25,6,0,.48-.47,5.41,2.08,8.28A6.05,6.05,0,0,0,13.49,17.24Zm-5-10.13V7.06c.22-4.75,3.6-5.26,5-5.26h.08c1.79,0,4.83.76,5,5.26v.05s.47,4.55-1.63,6.93a4.35,4.35,0,0,1-3.42,1.41h-.06A4.32,4.32,0,0,1,10.16,14C8.06,11.68,8.51,7.15,8.52,7.11Z"/><path class="cls-1" d="M27.22,25.42v0s0-.11,0-.17c0-1.31-.13-4.38-3-5.36l-.07,0a19.15,19.15,0,0,1-5.5-2.5.89.89,0,0,0-1,1.46,20.56,20.56,0,0,0,6.05,2.77c1.54.55,1.71,2.2,1.76,3.71v.16a12.33,12.33,0,0,1-.13,2.05,24.44,24.44,0,0,1-11.69,2.72A24.52,24.52,0,0,1,1.92,27.49a12.26,12.26,0,0,1-.14-2c0-.06,0-.11,0-.17.05-1.51.22-3.16,1.76-3.71A21,21,0,0,0,9.6,18.81a.89.89,0,0,0-1-1.47,19.17,19.17,0,0,1-5.5,2.51l-.07,0c-2.88,1-3,4.05-3,5.36a.81.81,0,0,1,0,.16v0a10.39,10.39,0,0,0,.34,3,.89.89,0,0,0,.34.42C.88,29,5.65,32,13.62,32s12.74-3,12.93-3.17a.85.85,0,0,0,.35-.42A11,11,0,0,0,27.22,25.42Z"/></g></g></svg>