<svg xmlns="http://www.w3.org/2000/svg" viewBox="0 0 32 32"><defs><style>.cls-1{fill:#8f8e9e;}</style></defs><title>tc-zoom-plus</title><g id="Layer_2" data-name="Layer 2"><g id="Layer_1-2" data-name="Layer 1"><path class="cls-1" d="M27.31,4.69a16,16,0,0,0-22.62,0,16,16,0,0,0,0,22.62,16,16,0,0,0,22.62,0,16,16,0,0,0,0-22.62ZM26,26a14.18,14.18,0,1,1,4.15-10A14.12,14.12,0,0,1,26,26Z"/><path class="cls-1" d="M25.05,15.1H16.91V6.94a.91.91,0,1,0-1.82,0v8.15H6.94a.91.91,0,1,0,0,1.82h8.15v8.15a.91.91,0,0,0,1.55.65.87.87,0,0,0,.26-.64V16.91h8.16a.93.93,0,0,0,.64-.26A.83.83,0,0,0,26,16,.9.9,0,0,0,25.05,15.1Z"/></g></g></svg>